PathFileType	4	(X/Y/Z)	C:/Users/opensim2020/Desktop/walking_exp_matlab/subject06_walking11_run_cyclic.trc																																																																																																																																								
DataRate	CameraRate	NumFrames	NumMarkers	Units	OrigDataRate	OrigDataStartFrame	OrigNumFrames																																																																																																																																				
100	100	4	46	mm	100	243	66																																																																																																																																				
Frame#	Time	LKNE			RKNE			RFRM			RWRA			RWRB			RELB			RUPA			RSHO			LWRA			RFIN			RFHD			CLAV			RASI			RTHI			LSHO			LTHI			RBHD			C7			LTIB			LANK			LTOE			LBHD			RTIB			RBAK			LHEE			RANK			STRN			RHEE			RTOE			T10			LUPA			LFHD			LPSI			RPSI			LASI			LFRM			LWRB			LFIN			LELB			*39			*40			*41			*42			*43			*44			*45		
		X1	Y1	Z1	X2	Y2	Z2	X3	Y3	Z3	X4	Y4	Z4	X5	Y5	Z5	X6	Y6	Z6	X7	Y7	Z7	X8	Y8	Z8	X9	Y9	Z9	X10	Y10	Z10	X11	Y11	Z11	X12	Y12	Z12	X13	Y13	Z13	X14	Y14	Z14	X15	Y15	Z15	X16	Y16	Z16	X17	Y17	Z17	X18	Y18	Z18	X19	Y19	Z19	X20	Y20	Z20	X21	Y21	Z21	X22	Y22	Z22	X23	Y23	Z23	X24	Y24	Z24	X25	Y25	Z25	X26	Y26	Z26	X27	Y27	Z27	X28	Y28	Z28	X29	Y29	Z29	X30	Y30	Z30	X31	Y31	Z31	X32	Y32	Z32	X33	Y33	Z33	X34	Y34	Z34	X35	Y35	Z35	X36	Y36	Z36	X37	Y37	Z37	X38	Y38	Z38	X39	Y39	Z39	X40	Y40	Z40	X41	Y41	Z41	X42	Y42	Z42	X43	Y43	Z43	X44	Y44	Z44	X45	Y45	Z45	X46	Y46	Z46
																																																																																																																																											
29	0.28	279.62891	434.46606	112.30354	546.76282	539.74542	348.9111	271.71445	1125.41882	502.63577	385.5722	1096.18225	425.03571	370.70148	1045.20044	465.94678	205.74684	1204.16711	511.36417	247.99429	1287.328	457.94214	383.40405	1381.15759	343.05933	511.48865	1129.83557	62.07426	450.02545	1044.62488	445.34546	463.29477	1611.39417	260.06958	460.4935	1321.39941	202.09303	395.29538	913.49023	339.16772	467.64603	633.31049	383.93344	422.10608	1358.53564	35.17839	283.21057	597.8288	77.25642	339.98434	1544.26196	242.15262	355.22708	1407.61377	175.79912	132.92366	226.93027	138.618	30.67326	94.3523	191.47313	156.21753	34.27771	218.33423	356.1142	1545.15771	113.66207	390.39932	355.48334	359.12201	249.84831	1259.50928	247.34183	-17.23498	107.397	230.04541	245.79892	235.25197	332.44882	473.27332	1137.73328	211.36931	194.32378	237.61047	291.12079	341.11557	120.57947	338.78323	264.69653	1096.14368	212.07535	388.70035	1193.05164	-76.68619	479.77518	1618.02747	128.05795	240.79305	961.32202	150.04268	252.79759	960.30634	317.38733	386.69269	898.65106	119.51991	468.54828	1066.41858	-41.41538	533.27777	1063.1604	53.94833	591.41211	1106.92065	105.2196	371.63663	1101.10876	-118.31676	NaN	NaN	NaN	367.66702	1643.8645	171.69183	NaN	NaN	NaN	NaN	NaN	NaN	NaN	NaN	NaN	NaN	NaN	NaN	NaN	NaN	NaN
30	0.29	297.33926	440.45416	111.90354	593.58307	558.30182	348.74698	300.72845	1140.16882	499.42862	416.49426	1112.02039	423.7146	402.31796	1061.86658	465.1492	234.16364	1217.05505	507.05292	279.49011	1298.14624	454.08383	418.74396	1388.62097	342.58463	553.5481	1147.17505	65.04394	482.0921	1062.08118	444.93176	501.2175	1618.3811	261.82663	498.88449	1328.4762	203.93181	435.2016	922.38519	336.82962	512.2337	647.93201	383.70496	463.65991	1365.82324	36.96354	312.13599	603.25946	77.07977	378.10233	1550.98315	243.87714	394.25211	1414.25647	175.72588	142.66527	237.75273	136.56361	37.58524	106.62782	188.29097	156.67924	33.96214	218.75935	394.08603	1551.93811	115.39733	454.40118	358.53552	356.00406	287.86368	1266.26501	244.57916	-9.04707	122.66013	226.36604	322.14835	224.72688	326.63229	511.58221	1144.96912	212.98103	270.46442	223.47958	285.17523	427.49167	119.12772	330.21701	303.82544	1102.52063	207.96275	435.37146	1199.45276	-74.95396	517.36536	1624.85376	129.77246	280.87936	966.77863	147.08524	291.70151	968.41638	314.38892	425.62592	903.78503	117.83678	515.1897	1078.22375	-36.33239	577.4809	1080.50513	60.60934	632.72333	1128.05469	111.86583	419.79886	1107.33643	-116.71645	NaN	NaN	NaN	405.66733	1650.60962	173.41907	NaN	NaN	NaN	NaN	NaN	NaN	NaN	NaN	NaN	NaN	NaN	NaN	NaN	NaN	NaN
31	0.3	317.03949	449.11108	110.76563	638.27869	575.54639	348.9758	330.94348	1154.36646	495.70807	448.66415	1127.79688	421.77606	434.71899	1077.93262	463.36249	263.88525	1230.16663	502.6156	312.3125	1309.62292	449.91681	454.83496	1397.19861	342.09381	594.95465	1164.15503	67.64639	515.08105	1079.06873	443.96411	539.62805	1626.22473	263.4736	537.36823	1336.69336	205.51285	476.27042	932.8974	334.19269	555.89197	662.8855	383.4996	505.24911	1374.39099	38.62838	342.44434	610.36188	76.46214	416.44687	1559.03613	245.68222	433.16638	1421.93237	175.75319	154.81819	251.47714	133.96255	47.46358	121.57232	183.92076	157.22078	33.83479	219.30495	432.0997	1560.28076	117.19385	517.10699	361.25497	352.52304	326.39417	1274.1626	242.13693	2.92338	140.11729	221.79092	398.91663	215.11392	319.66068	550.362	1153.1814	214.57449	347.3829	210.49799	278.3208	513.50928	118.9657	319.6824	343.75693	1109.89355	204.05315	481.40485	1207.19092	-72.60786	555.43689	1633.00732	131.55186	321.93335	973.3642	144.07262	331.25369	977.53003	311.50449	466.48935	910.54694	116.15182	560.66217	1090.9679	-31.90225	620.45349	1098.19104	66.4491	672.71442	1149.06641	117.82092	466.78592	1114.73059	-114.8541	NaN	NaN	NaN	443.71939	1658.91968	175.61662	NaN	NaN	NaN	NaN	NaN	NaN	NaN	NaN	NaN	NaN	NaN	NaN	NaN	NaN	NaN
32	0.31	338.83237	459.87875	108.85668	681.3172	591.02155	349.61792	362.48038	1168.0708	491.57541	481.96008	1143.00049	419.6196	467.91357	1092.9563	460.85873	295.01471	1243.23145	497.95596	346.31458	1321.43469	445.43637	491.53076	1406.29712	341.49121	635.51819	1180.89941	69.91453	548.80566	1095.07568	442.74249	578.26129	1634.53015	265.45615	575.86707	1345.64832	206.81007	517.97552	944.12238	331.45258	598.63147	678.0766	383.42911	546.64532	1383.7926	40.27649	373.40082	619.31006	75.42671	454.90146	1567.91541	247.6371	472.11243	1430.24768	175.87285	169.83621	266.92712	130.49887	61.65817	137.92451	178.36145	157.67358	33.54542	219.75859	470.23087	1569.75537	118.99586	579.18243	362.75131	349.01807	365.60373	1282.75073	240.03131	19.50842	158.42055	216.14214	476.19882	206.32361	311.70963	588.63257	1162.72729	215.35915	425.16891	198.87425	270.65622	598.18579	119.09974	307.29639	384.32843	1117.99829	200.64374	526.72156	1216.08081	-70.33202	593.79651	1641.89453	133.5164	363.70074	980.99945	141.53061	371.85516	987.43292	308.6933	508.66699	918.35449	115.24556	604.40424	1104.14514	-27.55998	662.55048	1115.63782	71.46329	712.1488	1169.56628	122.86218	512.43768	1123.31958	-113.04723	NaN	NaN	NaN	482.36285	1667.99866	177.97134	NaN	NaN	NaN	NaN	NaN	NaN	NaN	NaN	NaN	NaN	NaN	NaN	NaN	NaN	NaN
